<?xml version="1.0" standalone="no"?><!DOCTYPE svg PUBLIC "-//W3C//DTD SVG 1.1//EN" "http://www.w3.org/Graphics/SVG/1.1/DTD/svg11.dtd"><svg t="1655188757267" class="icon" viewBox="0 0 1024 1024" version="1.1" xmlns="http://www.w3.org/2000/svg" p-id="4421" xmlns:xlink="http://www.w3.org/1999/xlink" width="32" height="32"><defs><style type="text/css">@font-face { font-family: feedback-iconfont; src: url("//at.alicdn.com/t/font_1031158_u69w8yhxdu.woff2?t=1630033759944") format("woff2"), url("//at.alicdn.com/t/font_1031158_u69w8yhxdu.woff?t=1630033759944") format("woff"), url("//at.alicdn.com/t/font_1031158_u69w8yhxdu.ttf?t=1630033759944") format("truetype"); }
</style></defs><path d="M203.657143 1024c-35.885714 0-65.142857-29.257143-65.142857-65.142857 0-32.914286 24.457143-60.114286 56.114285-64.457143l13.714286-59.542857c-37.6-26.285714-71.885714-72.228571-103.885714-139.314286-24.114286-50.514286-42.742857-104.342857-55.885714-148C20.685714 540.228571 0 514.742857 0 484.571429c0-35.885714 29.257143-65.142857 65.142857-65.142858h41.828572c2.971429-17.142857 8.114286-33.028571 15.428571-46.628571 16.571429-30.971429 42.971429-48.685714 72.457143-48.685714 9.714286 0 19.085714 1.942857 28 5.714285 8.914286-3.771429 18.285714-5.714286 28-5.714285s19.085714 1.942857 28 5.714285c6.971429-2.971429 14.171429-4.8 21.714286-5.485714 3.2-9.828571 6.514286-19.542857 9.714285-29.142857 9.142857-26.857143 18.628571-54.628571 24.342857-83.657143 9.485714-48.914286 19.314286-132.685714 22.171429-157.142857 3.428571-30.971429 29.371429-54.4 60.114286-54.4h190.285714c30.742857 0 56.571429 23.428571 60.114286 54.4 2.742857 24.457143 12.685714 108.228571 22.171428 157.142857 5.6 29.142857 15.2 56.8 24.342857 83.657143 7.657143 22.514286 15.657143 45.714286 21.142858 69.371429h1.6c8.342857 0 16.571429 0.914286 24.685714 2.628571 7.542857-1.714286 15.314286-2.628571 23.314286-2.628571 12.457143 0 24.8 2.285714 36.228571 6.628571 11.542857-4.342857 23.771429-6.628571 36.228571-6.628571 39.314286 0 73.714286 22.285714 91.085715 54.857142h10.857143c35.885714 0 65.142857 29.257143 65.142857 65.142858 0 30.171429-20.685714 55.657143-48.571429 62.971428-13.142857 43.657143-31.771429 97.485714-55.885714 148-32 66.971429-66.171429 113.028571-103.885714 139.314286l13.714285 59.542857c31.657143 4.342857 56.114286 31.657143 56.114286 64.457143 0 35.885714-29.257143 65.142857-65.142857 65.142857H203.657143z" fill="#25467A" p-id="4422"></path><path d="M729.371429 467.657143a55.085714 55.085714 0 1 0 110.171428 0 55.085714 55.085714 0 1 0-110.171428 0Z" fill="#7CB342" p-id="4423"></path><path d="M801.828571 467.657143a55.085714 55.085714 0 1 0 110.171429 0 55.085714 55.085714 0 1 0-110.171429 0Z" fill="#7CB342" p-id="4424"></path><path d="M656.8 467.657143a55.085714 55.085714 0 1 0 110.171429 0 55.085714 55.085714 0 1 0-110.171429 0Z" fill="#7CB342" p-id="4425"></path><path d="M208.228571 451.771429a79.657143 42.628571 90 1 0 85.257143 0 79.657143 42.628571 90 1 0-85.257143 0Z" fill="#7CB342" p-id="4426"></path><path d="M264.228571 451.771429a79.657143 42.628571 90 1 0 85.257143 0 79.657143 42.628571 90 1 0-85.257143 0Z" fill="#9CCC65" p-id="4427"></path><path d="M152.228571 451.771429a79.657143 42.628571 90 1 0 85.257143 0 79.657143 42.628571 90 1 0-85.257143 0Z" fill="#9CCC65" p-id="4428"></path><path d="M715.2 613.028571H308.8L225.028571 976h573.942858z" fill="#E3B376" p-id="4429"></path><path d="M594.057143 613.028571H429.942857L396.114286 976h231.771428zM798.971429 976h-35.885715l-66.171428-362.971429h18.285714z" fill="#BF8338" p-id="4430"></path><path d="M327.085714 613.028571L260.914286 976h-35.885715l83.771429-362.971429z" fill="#F0E2D1" p-id="4431"></path><path d="M690.285714 385.714286c-10.057143-51.542857-36-103.085714-48-165.028572-9.6-49.6-19.2-130.628571-22.742857-160.8-0.8-6.742857-6.057143-11.885714-12.457143-11.885714H416.914286c-6.285714 0-11.657143 5.142857-12.457143 11.885714-3.428571 30.285714-13.028571 111.314286-22.742857 160.8-12 61.828571-38.057143 113.485714-48 165.028572-10.057143 51.542857-10.057143 92.8-10.057143 92.8h376.685714s0-41.257143-10.057143-92.8z" fill="#E3B376" p-id="4432"></path><path d="M575.314286 385.714286c-3.542857-51.542857-12.8-103.085714-17.028572-165.028572-3.428571-49.6-6.857143-130.628571-8-160.8-0.228571-6.742857-2.171429-11.885714-4.457143-11.885714h-67.657142c-2.285714 0-4.114286 5.142857-4.457143 11.885714-1.257143 30.285714-4.685714 111.314286-8 160.8-4.228571 61.828571-13.485714 113.485714-17.028572 165.028572s-3.542857 92.8-3.542857 92.8h133.714286s0-41.257143-3.542857-92.8z" fill="#BF8338" p-id="4433"></path><path d="M425.828571 48c-3.542857 42.971429-9.714286 114.628571-16 161.6-9.371429 70.857143-29.828571 129.942857-37.714285 188.914286-4.228571 32.114286-6.171429 60.685714-7.085715 80.114285h-41.371428s0-41.257143 10.057143-92.8 36-103.085714 48-165.028571c9.6-49.6 19.2-130.628571 22.742857-160.914286 0.8-6.742857 6.057143-11.885714 12.457143-11.885714h8.914285z" fill="#F0E3D3" p-id="4434"></path><path d="M700.342857 478.514286h-41.371428c-0.914286-19.428571-2.857143-48-7.085715-80.114286-7.885714-59.085714-28.228571-118.057143-37.714285-188.914286-6.285714-46.971429-12.457143-118.628571-16-161.6h8.914285c6.285714 0 11.657143 5.142857 12.457143 11.885715 3.428571 30.285714 13.028571 111.314286 22.742857 160.914285 12 61.828571 38.057143 113.485714 48 165.028572 10.057143 51.542857 10.057143 92.8 10.057143 92.8z" fill="#BF8338" p-id="4435"></path><path d="M311.657143 469.257143a68.228571 68.228571 0 1 0 136.457143 0 68.228571 68.228571 0 1 0-136.457143 0Z" fill="#FF8A80" p-id="4436"></path><path d="M401.485714 469.257143a68.228571 68.228571 0 1 0 136.457143 0 68.228571 68.228571 0 1 0-136.457143 0Z" fill="#FF8A80" p-id="4437"></path><path d="M221.828571 469.257143a68.228571 68.228571 0 1 0 136.457143 0 68.228571 68.228571 0 1 0-136.457143 0Z" fill="#FF8A80" p-id="4438"></path><path d="M578.4 480.8a68.228571 68.228571 0 1 0 136.457143 0 68.228571 68.228571 0 1 0-136.457143 0Z" fill="#C62828" p-id="4439"></path><path d="M668.228571 480.8a68.228571 68.228571 0 1 0 136.457143 0 68.228571 68.228571 0 1 0-136.457143 0Z" fill="#E53935" p-id="4440"></path><path d="M488.685714 480.8a68.228571 68.228571 0 1 0 136.457143 0 68.228571 68.228571 0 1 0-136.457143 0Z" fill="#E53935" p-id="4441"></path><path d="M461.485714 448.8a76.8 41.142857 90 1 0 82.285715 0 76.8 41.142857 90 1 0-82.285715 0Z" fill="#7CB342" p-id="4442"></path><path d="M407.428571 448.8a76.8 41.142857 90 1 0 82.285715 0 76.8 41.142857 90 1 0-82.285715 0Z" fill="#7CB342" p-id="4443"></path><path d="M512 467.428571H76.571429s78.742857 345.6 210.057142 345.6h450.742858C868.8 813.028571 947.428571 467.428571 947.428571 467.428571H512z" fill="#E3A85D" p-id="4444"></path><path d="M260.114286 808.228571C144.8 766.857143 76.571429 467.428571 76.571429 467.428571h41.257142c12.342857 57.828571 62.971429 275.085714 142.285715 340.8z" fill="#F0E2D1" p-id="4445"></path><path d="M947.428571 467.428571s-68.228571 299.428571-183.542857 340.8c79.314286-65.828571 130.057143-282.971429 142.285715-340.8H947.428571z" fill="#B38449" p-id="4446"></path><path d="M958.857143 501.714286H65.142857c-9.371429 0-17.142857-7.657143-17.142857-17.142857 0-9.371429 7.657143-17.142857 17.142857-17.142858h893.714286c9.371429 0 17.142857 7.657143 17.142857 17.142858s-7.657143 17.142857-17.142857 17.142857zM820.342857 976H203.657143c-9.485714 0-17.142857-7.657143-17.142857-17.142857s7.657143-17.142857 17.142857-17.142857h616.8c9.485714 0 17.142857 7.657143 17.142857 17.142857-0.114286 9.485714-7.771429 17.142857-17.257143 17.142857z" fill="#F0D8BB" p-id="4447"></path><path d="M512 761.485714c-35.314286 0-64-28.685714-64-64 0-7.085714 5.714286-12.8 12.8-12.8s12.8 5.714286 12.8 12.8c0 21.257143 17.142857 38.4 38.4 38.4s38.4-17.142857 38.4-38.4c0-7.085714 5.714286-12.8 12.8-12.8s12.8 5.714286 12.8 12.8c0 35.314286-28.685714 64-64 64zM345.6 595.085714c0 21.257143 17.142857 38.4 38.4 38.4s38.4-17.142857 38.4-38.4-17.142857-38.4-38.4-38.4c-21.142857 0-38.4 17.142857-38.4 38.4zM601.6 595.085714c0 21.257143 17.142857 38.4 38.4 38.4s38.4-17.142857 38.4-38.4-17.142857-38.4-38.4-38.4c-21.142857 0-38.4 17.142857-38.4 38.4z" fill="#25467A" p-id="4448"></path><path d="M332.8 659.085714h-51.2c-14.171429 0-25.6 11.428571-25.6 25.6s11.428571 25.6 25.6 25.6h51.2c14.171429 0 25.6-11.428571 25.6-25.6s-11.428571-25.6-25.6-25.6z m409.6 0h-51.2c-14.171429 0-25.6 11.428571-25.6 25.6s11.428571 25.6 25.6 25.6h51.2c14.171429 0 25.6-11.428571 25.6-25.6s-11.428571-25.6-25.6-25.6z" fill="#E53935" p-id="4449"></path></svg>