<?xml version="1.0" standalone="no"?><!DOCTYPE svg PUBLIC "-//W3C//DTD SVG 1.1//EN" "http://www.w3.org/Graphics/SVG/1.1/DTD/svg11.dtd"><svg t="1656409930359" class="icon" viewBox="0 0 1280 1024" version="1.1" xmlns="http://www.w3.org/2000/svg" p-id="4486" xmlns:xlink="http://www.w3.org/1999/xlink" width="160" height="128"><defs><style type="text/css">@font-face { font-family: feedback-iconfont; src: url("//at.alicdn.com/t/font_1031158_u69w8yhxdu.woff2?t=1630033759944") format("woff2"), url("//at.alicdn.com/t/font_1031158_u69w8yhxdu.woff?t=1630033759944") format("woff"), url("//at.alicdn.com/t/font_1031158_u69w8yhxdu.ttf?t=1630033759944") format("truetype"); }
</style></defs><path d="M209.8 704c-68.2 0-92.8-60.8-92.8-60.8L5.2 420.2S-15.6 384 26 384h65.6c20.8 0 26.4 17.4 37.6 36.2l73.4 149s10.4 26.2 42.2 26.2 42.2-26.2 42.2-26.2l73.4-149c11.2-19 16.8-36.2 37.6-36.2h65.6c41.6 0 20.8 36.2 20.8 36.2l-111.6 223S348.4 704 280 704h-70.2z m790 0c-68.2 0-92.8-60.8-92.8-60.8l-111.8-223S774.4 384 816 384h65.6c20.8 0 26.4 17.4 37.6 36.2l73.4 149s10.4 26.2 42.2 26.2 42.2-26.2 42.2-26.2l73.6-149c11.2-19 16.8-36.2 37.6-36.2H1254c41.6 0 20.8 36.2 20.8 36.2l-111.8 223S1138.6 704 1070.2 704h-70.4zM675.2 384c68.2 0 92.8 60.8 92.8 60.8l111.8 223s20.8 36.2-20.8 36.2h-65.6c-20.8 0-26.4-17.4-37.6-36.2l-73.4-149s-10.4-26.2-42.2-26.2c-31.8 0-42.2 26.2-42.2 26.2l-73.4 149c-11.2 18.8-16.8 36.2-37.6 36.2h-65.8c-41.6 0-20.8-36.2-20.8-36.2l111.8-223s24.4-60.8 92.8-60.8h70.2z" p-id="4487" fill="#000000"></path></svg>