<svg t="1656992149805" class="icon" viewBox="0 0 1024 1024" version="1.1" xmlns="http://www.w3.org/2000/svg" p-id="3459" width="32" height="32"><path d="M957.980889 143.928017 779.398608 322.236052 918.856823 461.693244 561.127396 461.693244 561.127396 103.959723 700.585611 243.421009 878.897739 64.840774 957.980889 143.928017Z" p-id="3460"></path><path d="M957.980889 880.07096 779.398608 701.762925 918.856823 562.304709 561.127396 562.304709 561.127396 920.034137 700.585611 780.576945 878.897739 959.159226 957.980889 880.07096Z" p-id="3461"></path><path d="M63.650157 880.07096 242.231415 701.762925 102.77013 562.304709 460.503651 562.304709 460.503651 920.034137 321.047482 780.576945 142.733307 959.159226 63.650157 880.07096Z" p-id="3462"></path><path d="M63.650157 143.928017 242.231415 322.236052 102.77013 461.693244 460.503651 461.693244 460.503651 103.959723 321.047482 243.421009 142.733307 64.840774 63.650157 143.928017Z" p-id="3463"></path><path d="M460.504674 382.604978" p-id="3464"></path></svg>