<?xml version="1.0" standalone="no"?><!DOCTYPE svg PUBLIC "-//W3C//DTD SVG 1.1//EN" "http://www.w3.org/Graphics/SVG/1.1/DTD/svg11.dtd"><svg t="1656412158073" class="icon" viewBox="0 0 1024 1024" version="1.1" xmlns="http://www.w3.org/2000/svg" p-id="5329" width="32" height="32" xmlns:xlink="http://www.w3.org/1999/xlink"><defs><style type="text/css">@font-face { font-family: feedback-iconfont; src: url("//at.alicdn.com/t/font_1031158_u69w8yhxdu.woff2?t=1630033759944") format("woff2"), url("//at.alicdn.com/t/font_1031158_u69w8yhxdu.woff?t=1630033759944") format("woff"), url("//at.alicdn.com/t/font_1031158_u69w8yhxdu.ttf?t=1630033759944") format("truetype"); }
</style></defs><path d="M1024 585.142857V438.857143h-98.742857a73.142857 73.142857 0 0 1-68.022857-48.274286 310.857143 310.857143 0 0 0-15.36-35.84 73.142857 73.142857 0 0 1 13.897143-82.651428l73.142857-73.142858-106.788572-100.205714-73.142857 69.485714a73.142857 73.142857 0 0 1-82.651428 13.897143 321.828571 321.828571 0 0 0-36.571429-15.36A73.142857 73.142857 0 0 1 585.142857 98.742857V0H438.857143v98.742857a73.142857 73.142857 0 0 1-48.274286 68.022857 321.828571 321.828571 0 0 0-36.571428 15.36 73.142857 73.142857 0 0 1-82.651429-13.897143l-73.142857-69.485714-100.205714 103.131429 73.142857 73.142857a73.142857 73.142857 0 0 1 13.897143 82.651428 310.857143 310.857143 0 0 0-15.36 35.84 73.142857 73.142857 0 0 1-70.948572 45.348572H0v146.285714h98.742857a73.142857 73.142857 0 0 1 68.022857 48.274286 310.857143 310.857143 0 0 0 15.36 35.84 73.142857 73.142857 0 0 1-13.897143 82.651428l-73.142857 73.142858 103.862857 103.862857 73.142858-73.142857a73.142857 73.142857 0 0 1 82.651428-13.897143 310.857143 310.857143 0 0 0 35.84 15.36 73.142857 73.142857 0 0 1 48.274286 68.022857V1024h146.285714v-98.742857a73.142857 73.142857 0 0 1 48.274286-68.022857 310.857143 310.857143 0 0 0 35.84-15.36 73.142857 73.142857 0 0 1 82.651428 13.897143l73.142858 73.142857 103.862857-103.862857-73.142857-73.142858a73.142857 73.142857 0 0 1-13.897143-82.651428 310.857143 310.857143 0 0 0 15.36-35.84 73.142857 73.142857 0 0 1 68.022857-48.274286z m-313.782857 21.211429a223.817143 223.817143 0 0 1-103.862857 103.862857 108.251429 108.251429 0 0 1-21.211429 8.777143 219.428571 219.428571 0 0 1-146.285714 0 108.251429 108.251429 0 0 1-21.211429-8.777143 223.817143 223.817143 0 0 1-103.862857-103.862857A182.125714 182.125714 0 0 1 305.737143 585.142857a209.92 209.92 0 0 1 0-146.285714c0-7.314286 5.12-13.897143 8.045714-21.211429A219.428571 219.428571 0 0 1 417.645714 314.514286 108.251429 108.251429 0 0 1 438.857143 305.737143a209.92 209.92 0 0 1 146.285714 0 108.251429 108.251429 0 0 1 21.211429 8.777143 219.428571 219.428571 0 0 1 103.862857 103.131428c0 7.314286 5.851429 13.897143 8.045714 21.211429a209.92 209.92 0 0 1 0 146.285714 182.125714 182.125714 0 0 1-8.045714 21.211429z" p-id="5330"></path></svg>